<?xml version="1.0" encoding="UTF-8" standalone="no"?>
<!DOCTYPE svg PUBLIC "-//W3C//DTD SVG 1.1//EN" "http://www.w3.org/Graphics/SVG/1.1/DTD/svg11.dtd">
<svg width="100" height="100" viewBox="0 0 100 100" xmlns="http://www.w3.org/2000/svg" xmlns:xlink="http://www.w3.org/1999/xlink">
<g stroke-width="1" stroke="black">
<rect x="0" y="50" width="50" height="50" r="0.5" fill="green" />
<rect x="50" y="75" width="25" height="25" r="0.5" fill="green" />
<rect x="75" y="87.5" width="12.5" height="12.5" r="0.5" fill="green" />
<rect x="87.5" y="93.75" width="6.25" height="6.25" r="0.5" fill="lime" />
<rect x="93.75" y="93.75" width="6.25" height="6.25" r="0.5" fill="lime" />
<rect x="87.5" y="87.5" width="6.25" height="6.25" r="0.5" fill="lime" />
<rect x="93.75" y="87.5" width="6.25" height="6.25" r="0.5" fill="lime" />
<rect x="75" y="75" width="12.5" height="12.5" r="0.5" fill="green" />
<rect x="87.5" y="81.25" width="6.25" height="6.25" r="0.5" fill="lime" />
<rect x="93.75" y="81.25" width="6.25" height="6.25" r="0.5" fill="lime" />
<rect x="87.5" y="75" width="6.25" height="6.25" r="0.5" fill="lime" />
<rect x="93.75" y="75" width="6.25" height="6.25" r="0.5" fill="lime" />
<rect x="50" y="50" width="25" height="25" r="0.5" fill="green" />
<rect x="75" y="62.5" width="12.5" height="12.5" r="0.5" fill="green" />
<rect x="87.5" y="68.75" width="6.25" height="6.25" r="0.5" fill="lime" />
<rect x="93.75" y="68.75" width="6.25" height="6.25" r="0.5" fill="lime" />
<rect x="87.5" y="62.5" width="6.25" height="6.25" r="0.5" fill="lime" />
<rect x="93.75" y="62.5" width="6.25" height="6.25" r="0.5" fill="lime" />
<rect x="75" y="56.25" width="6.25" height="6.25" r="0.5" fill="lime" />
<rect x="81.25" y="56.25" width="6.25" height="6.25" r="0.5" fill="lime" />
<rect x="75" y="50" width="6.25" height="6.25" r="0.5" fill="lime" />
<rect x="81.25" y="50" width="6.25" height="6.25" r="0.5" fill="lime" />
<rect x="87.5" y="56.25" width="6.25" height="6.25" r="0.5" fill="lime" />
<rect x="93.75" y="56.25" width="6.25" height="6.25" r="0.5" fill="lime" />
<rect x="87.5" y="50" width="6.25" height="6.25" r="0.5" fill="lime" />
<rect x="93.75" y="50" width="6.25" height="6.25" r="0.5" fill="lime" />
<rect x="0" y="25" width="25" height="25" r="0.5" fill="green" />
<rect x="25" y="25" width="25" height="25" r="0.5" fill="green" />
<rect x="0" y="12.5" width="12.5" height="12.5" r="0.5" fill="green" />
<rect x="12.5" y="12.5" width="12.5" height="12.5" r="0.5" fill="green" />
<rect x="0" y="6.25" width="6.25" height="6.25" r="0.5" fill="lime" />
<rect x="6.25" y="6.25" width="6.25" height="6.25" r="0.5" fill="lime" />
<rect x="0" y="0" width="6.25" height="6.25" r="0.5" fill="lime" />
<rect x="6.25" y="0" width="6.25" height="6.25" r="0.5" fill="lime" />
<rect x="12.5" y="6.25" width="6.25" height="6.25" r="0.5" fill="lime" />
<rect x="18.75" y="6.25" width="6.25" height="6.25" r="0.5" fill="lime" />
<rect x="12.5" y="0" width="6.25" height="6.25" r="0.5" fill="lime" />
<rect x="18.75" y="0" width="6.25" height="6.25" r="0.5" fill="lime" />
<rect x="25" y="12.5" width="12.5" height="12.5" r="0.5" fill="green" />
<rect x="37.5" y="18.75" width="6.25" height="6.25" r="0.5" fill="lime" />
<rect x="43.75" y="18.75" width="6.25" height="6.25" r="0.5" fill="lime" />
<rect x="37.5" y="12.5" width="6.25" height="6.25" r="0.5" fill="lime" />
<rect x="43.75" y="12.5" width="6.25" height="6.25" r="0.5" fill="lime" />
<rect x="25" y="6.25" width="6.25" height="6.25" r="0.5" fill="lime" />
<rect x="31.25" y="6.25" width="6.25" height="6.25" r="0.5" fill="lime" />
<rect x="25" y="0" width="6.25" height="6.25" r="0.5" fill="lime" />
<rect x="31.25" y="0" width="6.25" height="6.25" r="0.5" fill="lime" />
<rect x="37.5" y="6.25" width="6.25" height="6.25" r="0.5" fill="lime" />
<rect x="43.75" y="6.25" width="6.25" height="6.25" r="0.5" fill="lime" />
<rect x="37.5" y="0" width="6.25" height="6.25" r="0.5" fill="lime" />
<rect x="43.75" y="0" width="6.25" height="6.25" r="0.5" fill="lime" />
<rect x="50" y="37.5" width="12.5" height="12.5" r="0.5" fill="green" />
<rect x="62.5" y="37.5" width="12.5" height="12.5" r="0.5" fill="green" />
<rect x="50" y="25" width="12.5" height="12.5" r="0.5" fill="green" />
<rect x="62.5" y="31.25" width="6.25" height="6.25" r="0.5" fill="lime" />
<rect x="68.75" y="31.25" width="6.25" height="6.25" r="0.5" fill="lime" />
<rect x="62.5" y="25" width="6.25" height="6.25" r="0.5" fill="lime" />
<rect x="68.75" y="25" width="6.25" height="6.25" r="0.5" fill="lime" />
<rect x="75" y="43.75" width="6.25" height="6.25" r="0.5" fill="lime" />
<rect x="81.25" y="43.75" width="6.25" height="6.25" r="0.5" fill="lime" />
<rect x="75" y="37.5" width="6.25" height="6.25" r="0.5" fill="lime" />
<rect x="81.25" y="37.5" width="6.25" height="6.25" r="0.5" fill="lime" />
<rect x="87.5" y="37.5" width="12.5" height="12.5" r="0.5" fill="red" />
<rect x="75" y="31.25" width="6.25" height="6.25" r="0.5" fill="lime" />
<rect x="81.25" y="31.25" width="6.25" height="6.25" r="0.5" fill="lime" />
<rect x="75" y="25" width="6.25" height="6.25" r="0.5" fill="lime" />
<rect x="81.25" y="25" width="6.25" height="6.25" r="0.5" fill="lime" />
<rect x="87.5" y="25" width="12.5" height="12.5" r="0.5" fill="red" />
<rect x="50" y="18.75" width="6.25" height="6.25" r="0.5" fill="lime" />
<rect x="56.25" y="18.75" width="6.25" height="6.25" r="0.5" fill="lime" />
<rect x="50" y="12.5" width="6.25" height="6.25" r="0.5" fill="lime" />
<rect x="56.25" y="12.5" width="6.25" height="6.25" r="0.5" fill="lime" />
<rect x="62.5" y="18.75" width="6.25" height="6.25" r="0.5" fill="lime" />
<rect x="68.75" y="18.75" width="6.25" height="6.25" r="0.5" fill="lime" />
<rect x="62.5" y="12.5" width="6.25" height="6.25" r="0.5" fill="lime" />
<rect x="68.75" y="12.5" width="6.25" height="6.25" r="0.5" fill="lime" />
<rect x="50" y="0" width="12.5" height="12.5" r="0.5" fill="red" />
<rect x="62.5" y="0" width="12.5" height="12.5" r="0.5" fill="red" />
<rect x="75" y="0" width="25" height="25" r="0.5" fill="red" />
</g>
<circle cx="0" cy="100" r="100" stroke-width="1" stroke="black" fill="none" />
</svg>

