<?xml version="1.0" encoding="UTF-8" standalone="no"?>
<!-- Created with Inkscape (http://www.inkscape.org/) -->

<svg
   xmlns:dc="http://purl.org/dc/elements/1.1/"
   xmlns:cc="http://creativecommons.org/ns#"
   xmlns:rdf="http://www.w3.org/1999/02/22-rdf-syntax-ns#"
   xmlns:svg="http://www.w3.org/2000/svg"
   xmlns="http://www.w3.org/2000/svg"
   xmlns:sodipodi="http://sodipodi.sourceforge.net/DTD/sodipodi-0.dtd"
   xmlns:inkscape="http://www.inkscape.org/namespaces/inkscape"
   width="1000"
   height="30"
   id="svg2985"
   version="1.1"
   inkscape:version="0.91 r13725"
   sodipodi:docname="webbanner.svg">
  <defs
     id="defs2987" />
  <sodipodi:namedview
     id="base"
     pagecolor="#ffffff"
     bordercolor="#666666"
     borderopacity="1.0"
     inkscape:pageopacity="0.0"
     inkscape:pageshadow="2"
     inkscape:zoom="1"
     inkscape:cx="877.95143"
     inkscape:cy="-43.33333"
     inkscape:document-units="px"
     inkscape:current-layer="layer1"
     showgrid="false"
     inkscape:window-width="1301"
     inkscape:window-height="744"
     inkscape:window-x="65"
     inkscape:window-y="24"
     inkscape:window-maximized="1" />
  <metadata
     id="metadata2990">
    <rdf:RDF>
      <cc:Work
         rdf:about="">
        <dc:format>image/svg+xml</dc:format>
        <dc:type
           rdf:resource="http://purl.org/dc/dcmitype/StillImage" />
        <dc:title></dc:title>
      </cc:Work>
    </rdf:RDF>
  </metadata>
  <g
     id="layer1"
     inkscape:label="Layer 1"
     inkscape:groupmode="layer"
     transform="translate(0,-30)">
    <rect
       ry="6.5625"
       rx="6.5625"
       y="30.132574"
       x="0.13257307"
       height="29.734854"
       width="29.734854"
       id="rect3845"
       style="fill:#80b3ff;stroke:#80b3ff;stroke-width:0.26514614" />
    <rect
       style="opacity:1;fill:#80b3ff;fill-opacity:1;stroke:none;stroke-width:18.60000038;stroke-linecap:round;stroke-linejoin:round;stroke-miterlimit:4;stroke-dasharray:none;stroke-opacity:1"
       id="rect3342"
       width="1471"
       height="127"
       x="-58"
       y="-8" />
    <path
       style="fill:#ffffff;stroke:#000000;stroke-width:0.10757905;stroke-miterlimit:4;stroke-dasharray:none"
       d="m 1.7330521,51.977015 c -0.36478,-0.178782 -0.601045,-0.665907 -0.69602,-1.435266 -0.185175,-1.50014 0.27877,-4.63514 1.002725,-6.775359 0.56839,-1.680375 1.73874,-4.005656 2.567995,-5.101781 C 5.157967,37.93739 5.650787,37.470984 6.109082,37.244484 6.438427,37.08164 6.834107,37.05389 7.112637,37.174499 c 0.341675,0.147 0.552565,0.435985 1.59207,2.177016 0.77775,1.302609 1.099175,1.7685 1.5382,2.229609 0.54525,0.572625 0.97095,0.783891 1.42724,0.708141 l 0.21435,-0.0361 -0.01915,0.1455 c -0.0105,0.08001 -0.05548,0.700031 -0.100045,1.376906 -0.06176,0.939234 -0.09185,1.23075 -0.12706,1.23075 -0.0806,0 -0.05182,0.229125 0.08454,0.671484 0.234825,0.76261 0.263895,1.013391 0.13731,1.184766 -0.08172,0.111234 -0.152155,-0.015 -0.23327,-0.384141 -0.07535,-0.351984 -0.32771,-1.161375 -0.41797,-1.340765 -0.0434,-0.08499 -0.06635,-0.09872 -0.14718,-0.07749 -0.25281,0.06249 -0.28182,0.279235 -0.1285,0.956766 0.146815,0.648844 0.129485,0.94875 -0.06176,1.06875 -0.05191,0.03234 -0.08519,0.03516 -0.11854,0.015 -0.07188,-0.06 -0.1555,-0.411656 -0.20096,-0.845906 -0.10538,-1.00636 -0.1734,-1.229719 -0.346375,-1.136719 -0.101685,0.05372 -0.116005,0.17475 -0.119975,1.0065 -0.002,0.407719 -0.0152,0.830109 -0.02945,0.938859 l -0.02585,0.197485 -0.075815,-0.162 c -0.10947,-0.233719 -0.14831,-0.53475 -0.17513,-1.356985 -0.0254,-0.777515 -0.0522,-0.899484 -0.175195,-0.79725 -0.111055,0.09127 -0.26136,0.4665 -0.35931,0.894516 -0.229655,1.003734 -0.30603,1.275 -0.372025,1.321219 -0.03645,0.02484 -0.077035,0.09628 -0.089965,0.154875 -0.01305,0.05878 -0.054545,0.125015 -0.092315,0.1455 -0.0378,0.0211 -0.068695,0.0286 -0.068695,0.01735 0,-0.015 0.0467,-0.240891 0.103685,-0.513375 0.176255,-0.842016 0.182355,-1.186641 0.0252,-1.421625 -0.107065,-0.160125 -0.26719,-0.176906 -0.349005,-0.0361 -0.06513,0.1125 -0.148225,0.5085 -0.209205,0.998906 -0.083225,0.669375 -0.14845,0.916219 -0.242075,0.916219 -0.04585,0 -0.05126,-0.04641 -0.0347,-0.296344 0.0181,-0.273 0.098205,-0.620531 0.380745,-1.653 0.0582,-0.212531 0.097985,-0.38625 0.088465,-0.38625 -0.00945,0 -0.06241,0.0239 -0.11761,0.05123 -0.11605,0.06 -0.18801,0.213 -0.41803,0.88725 -0.236315,0.69286 -0.40378,1.11661 -0.480825,1.216641 l -0.06916,0.08873 -4.7e-4,-0.118734 c -0.001,-0.189281 0.09744,-0.617016 0.32687,-1.41675 0.208125,-0.72525 0.238575,-0.92325 0.146665,-0.953531 -0.07057,-0.0239 -0.248965,0.18075 -0.29322,0.33539 -0.0222,0.07627 -0.080225,0.383625 -0.128905,0.679875 -0.04865,0.296485 -0.10644,0.607125 -0.128335,0.690375 -0.0388,0.147 -0.151435,0.261891 -0.258235,0.261891 -0.086785,0 -0.14197,-0.199875 -0.12176,-0.441281 0.01575,-0.1875 0.06729,-0.322219 0.319285,-0.834985 0.440675,-0.896625 0.559975,-1.323609 0.440425,-1.5765 -0.0345,-0.07251 -0.076755,-0.1275 -0.094175,-0.121265 -0.01745,0.015 -0.157605,0.325781 -0.31161,0.71114 -0.4662,1.16625 -0.81341,1.862485 -1.08104,2.167875 -0.084065,0.09624 -0.177975,0.167625 -0.219435,0.167625 -0.06326,0 -0.06954,-0.0164 -0.0494,-0.125015 0.0419,-0.22411 0.23006,-0.6315 0.788655,-1.707375 0.60513,-1.165219 0.799705,-1.603875 0.83162,-1.874485 0.0198,-0.16725 -0.0316,-0.35475 -0.09728,-0.35475 -0.0133,0 -0.214325,0.41625 -0.446585,0.92536 -0.706785,1.548656 -1.08309,2.25539 -1.351495,2.538375 l -0.140035,0.147 -0.054725,-0.105 c -0.069725,-0.1335 -0.04455,-0.367969 0.081255,-0.757594 0.17615,-0.545391 1.00682,-2.173875 1.108885,-2.173875 0.101615,0 0.21305,-0.365156 0.135285,-0.44325 -0.0132,-0.015 -0.05342,0 -0.0895,0.03609 -0.062415,0.05498 -0.06551,0.05376 -0.06551,-0.07252 0,-0.184125 -0.11497,-0.18225 -0.21234,0 -0.0388,0.07378 -0.161935,0.24 -0.27351,0.368391 -0.45147,0.51989 -0.66372,1.181859 -0.89286,2.78489 -0.118735,0.830485 -0.15334,0.974344 -0.2187199,0.908719 -0.0268,-0.02765 -0.084905,-0.1455 -0.12897,-0.26325 -0.116415,-0.310969 -0.109575,-0.866719 0.01695,-1.38225 0.15341,-0.62475 0.15805,-0.698484 0.0507,-0.80625 -0.29431,-0.2955 -0.577685,0.156891 -0.83146,1.327266 -0.0343,0.15825 -0.12386,0.63525 -0.199055,1.060265 l -0.136745,0.7725 0.0151,-0.485156 c 0.015,-0.481125 0.08341,-1.026375 0.25044,-1.994344 0.18092,-1.0485 0.189825,-1.193156 0.06729,-1.090781 -0.074785,0.06127 -0.22154,0.362625 -0.32222,0.659625 -0.25043,0.738656 -0.360195,1.553766 -0.459665,3.413625 -0.075065,1.404281 -0.128495,1.821281 -0.24564,1.918875 -0.13335,0.111281 -0.29538,-0.1485 -0.33062,-0.528609 -0.01275,-0.1365 -0.004,-0.465516 0.02035,-0.729891 0.076755,-0.84975 0.237675,-1.713844 0.857005,-4.601344 0.22692,-1.058156 0.253365,-1.395 0.109465,-1.395 -0.098845,0 -0.198945,0.150985 -0.46404,0.700594 -0.52625,1.091016 -0.792585,2.087391 -0.95484,3.572766 -0.0436,0.398625 -0.059045,0.965109 -0.06504,2.374359 -0.0075,1.78664 -0.0207,2.127281 -0.093715,2.4165 -0.02895,0.115031 -0.04835,0.135 -0.13101,0.1335 -0.053325,0 -0.16144,-0.03234 -0.24017,-0.07247 z"
       id="path3826"
       inkscape:connector-curvature="0" />
    <path
       inkscape:connector-curvature="0"
       id="path3828"
       d="m 28.267177,52.372265 c 0.364775,-0.178782 0.601045,-0.665766 0.69603,-1.435266 0.185165,-1.50014 -0.27879,-4.635 -1.00273,-6.775359 -0.568395,-1.680375 -1.738755,-4.005375 -2.567995,-5.101641 -0.55022,-0.727359 -1.04304,-1.193484 -1.50133,-1.420265 -0.32936,-0.162844 -0.725045,-0.190594 -1.00356,-0.06998 -0.341675,0.147 -0.55257,0.435985 -1.59207,2.177016 -0.77775,1.302609 -1.099165,1.7685 -1.5382,2.22975 -0.54525,0.572484 -0.97094,0.78375 -1.42723,0.708 l -0.21435,-0.03609 0.01915,0.1455 c 0.0105,0.08002 0.05549,0.700031 0.10004,1.376906 0.06174,0.939375 0.09184,1.23075 0.127065,1.23075 0.0806,0 0.05183,0.229125 -0.08454,0.671625 -0.23483,0.762469 -0.2639,1.01325 -0.13731,1.184625 0.08173,0.111234 0.15216,-0.015 0.233255,-0.384141 0.07536,-0.351984 0.327725,-1.161375 0.417975,-1.340625 0.0434,-0.08498 0.06636,-0.09877 0.147195,-0.07748 0.252805,0.06248 0.281805,0.279375 0.128505,0.956859 -0.146835,0.64875 -0.129495,0.94861 0.06175,1.06861 0.05191,0.03234 0.08518,0.03515 0.11855,0.015 0.07187,-0.06 0.155495,-0.41161 0.20096,-0.845719 0.105375,-1.0065 0.173405,-1.229906 0.34637,-1.136906 0.101685,0.05376 0.116025,0.17475 0.119985,1.0065 0.002,0.407625 0.0152,0.830156 0.02945,0.938906 l 0.0259,0.197625 0.07573,-0.161906 c 0.109485,-0.234 0.1483,-0.534844 0.17514,-1.357219 0.0254,-0.777656 0.0522,-0.899531 0.175185,-0.79725 0.11106,0.09122 0.261365,0.4665 0.35932,0.894609 0.229655,1.003641 0.306025,1.27486 0.37201,1.321266 0.03645,0.02484 0.07704,0.09497 0.09006,0.154734 0.01305,0.05873 0.05454,0.125016 0.09232,0.1455 0.0378,0.02109 0.06868,0.02859 0.06868,0.01734 0,-0.015 -0.0467,-0.24075 -0.10367,-0.513234 -0.17625,-0.842016 -0.182345,-1.1865 -0.0252,-1.421625 0.107075,-0.160125 0.267185,-0.176859 0.349,-0.03609 0.06515,0.111235 0.14823,0.508219 0.209215,0.998719 0.08322,0.669375 0.148455,0.916406 0.24206,0.916406 0.04585,0 0.05137,-0.04641 0.0347,-0.296625 -0.0182,-0.272906 -0.09819,-0.620531 -0.38075,-1.652906 -0.0582,-0.212344 -0.09797,-0.386344 -0.08857,-0.386344 0.0095,0 0.06241,0.0239 0.11763,0.05123 0.116035,0.06 0.18799,0.21314 0.418005,0.88739 0.23633,0.692719 0.40379,1.116469 0.480835,1.2165 l 0.06916,0.09 4.7e-4,-0.118781 c 0.001,-0.189234 -0.09744,-0.61725 -0.32686,-1.41675 -0.208125,-0.72525 -0.238575,-0.92325 -0.14668,-0.953484 0.07056,-0.0239 0.24895,0.18075 0.29322,0.33525 0.0222,0.07626 0.08022,0.383484 0.128895,0.680015 0.0486,0.296485 0.106445,0.607125 0.12834,0.690375 0.0388,0.147 0.151445,0.261844 0.258235,0.261844 0.08679,0 0.141965,-0.199969 0.12175,-0.441234 -0.01575,-0.1875 -0.06729,-0.322266 -0.319285,-0.834985 -0.440675,-0.896765 -0.55997,-1.32375 -0.44042,-1.576781 0.0344,-0.07247 0.07674,-0.1275 0.09417,-0.121219 0.01745,0.015 0.1576,0.325875 0.311605,0.711235 0.4662,1.16639 0.813415,1.862484 1.081035,2.167734 0.08398,0.09628 0.177975,0.167766 0.219445,0.167766 0.06328,0 0.06953,-0.0164 0.0494,-0.125016 -0.0419,-0.22425 -0.23007,-0.631734 -0.78865,-1.707375 -0.605135,-1.1655 -0.79971,-1.603875 -0.83162,-1.874344 -0.0198,-0.167531 0.0316,-0.355031 0.09727,-0.355031 0.01335,0 0.214335,0.416531 0.44659,0.9255 0.70679,1.548516 1.083095,2.25525 1.3515,2.538281 l 0.140025,0.147 0.05474,-0.105 c 0.06972,-0.1335 0.0446,-0.36825 -0.08125,-0.75764 -0.17616,-0.545625 -1.00683,-2.174016 -1.10891,-2.174016 -0.1016,0 -0.21304,-0.36525 -0.13527,-0.443344 0.0132,-0.015 0.05341,0 0.0895,0.0361 0.06241,0.05499 0.06552,0.05377 0.06552,-0.07252 0,-0.183985 0.114975,-0.18225 0.212345,0 0.0388,0.07378 0.161945,0.239906 0.2735,0.36839 0.45148,0.519891 0.66373,1.18186 0.89287,2.784891 0.118735,0.830625 0.153335,0.97425 0.218715,0.908718 0.0268,-0.02765 0.08491,-0.1455 0.128985,-0.26325 0.1164,-0.310968 0.109565,-0.866718 -0.01695,-1.382109 -0.153415,-0.62489 -0.158055,-0.698625 -0.0507,-0.80639 0.294315,-0.2955 0.577675,0.15689 0.831455,1.327406 0.0343,0.15825 0.123845,0.63525 0.199065,1.059984 l 0.136735,0.772641 -0.0151,-0.48525 c -0.015,-0.481125 -0.08341,-1.026282 -0.25044,-1.99425 -0.180925,-1.048641 -0.189835,-1.193016 -0.06729,-1.090875 0.07479,0.06122 0.22155,0.362859 0.322235,0.659625 0.250415,0.73875 0.360185,1.553859 0.45965,3.413859 0.07506,1.404 0.1285,1.821141 0.24565,1.918875 0.13335,0.111234 0.295375,-0.1485 0.330605,-0.528609 0.01275,-0.1365 0.0035,-0.46575 -0.02035,-0.730125 -0.07675,-0.84975 -0.23768,-1.71375 -0.85701,-4.601391 -0.22692,-1.058109 -0.25336,-1.395 -0.10945,-1.395 0.09885,0 0.198955,0.151266 0.464045,0.700641 0.526255,1.091109 0.792575,2.087625 0.954835,3.572859 0.0436,0.398766 0.05904,0.965016 0.06504,2.374266 0.0075,1.786593 0.0207,2.127234 0.09373,2.416593 0.02895,0.113766 0.04835,0.135 0.130995,0.1335 0.05333,0 0.16144,-0.03234 0.24018,-0.06998 z"
       style="fill:#ffffff;stroke:#000000;stroke-width:0.10757905;stroke-miterlimit:4;stroke-dasharray:none" />
    <rect
       style="fill:#b3b3b3;fill-rule:evenodd;stroke:#b3b3b3;stroke-width:0.10040707px;stroke-linecap:butt;stroke-linejoin:miter;stroke-opacity:1"
       id="rect3005"
       width="11.235162"
       height="21.445137"
       x="9.5273867"
       y="34.277481"
       ry="2.235986"
       rx="2.0243535" />
    <rect
       style="fill:#b3b3b3;stroke:#b3b3b3;stroke-width:0.10040707"
       id="rect3007"
       width="2.935313"
       height="1.524536"
       x="10.134709"
       y="38.342995"
       rx="2.0243535"
       ry="1.524536" />
    <rect
       ry="1.524536"
       rx="2.0243535"
       y="38.342995"
       x="10.134709"
       height="1.524536"
       width="2.935313"
       id="rect3009"
       style="fill:#b3b3b3;stroke:#b3b3b3;stroke-width:0.10040707" />
    <rect
       style="fill:#80b3ff;stroke:#80b3ff;stroke-width:0.08067301"
       id="rect3011"
       width="6.4001245"
       height="12.788774"
       x="11.909764"
       y="37.302841"
       rx="0"
       ry="0" />
    <ellipse
       style="fill:#ffffff;stroke:#000000;stroke-width:0.30122131;stroke-miterlimit:4;stroke-dasharray:none"
       id="path3013"
       cx="15.094371"
       cy="53.588196"
       rx="1.3158299"
       ry="1.3212645" />
  </g>
</svg>
